<svg xmlns="http://www.w3.org/2000/svg" width="369" height="40" viewBox="0 0 369 40">
  <metadata><?xpacket begin="﻿" id="W5M0MpCehiHzreSzNTczkc9d"?>
<x:xmpmeta xmlns:x="adobe:ns:meta/" x:xmptk="Adobe XMP Core 5.6-c138 79.159824, 2016/09/14-01:09:01        ">
   <rdf:RDF xmlns:rdf="http://www.w3.org/1999/02/22-rdf-syntax-ns#">
      <rdf:Description rdf:about=""/>
   </rdf:RDF>
</x:xmpmeta>
                                                                                                    
                                                                                                    
                                                                                                    
                                                                                                    
                                                                                                    
                                                                                                    
                                                                                                    
                                                                                                    
                                                                                                    
                                                                                                    
                                                                                                    
                                                                                                    
                                                                                                    
                                                                                                    
                                                                                                    
                                                                                                    
                                                                                                    
                                                                                                    
                                                                                                    
                                                                                                    
                           
<?xpacket end="w"?></metadata>
<defs>
    <style>
      .cls-1 {
        fill: #fff;
        fill-rule: evenodd;
      }
    </style>
  </defs>
  <path id="GIDEON_SLIFE" data-name="GIDEON SLIFE" class="cls-1" d="M20.011,25.422h8.05a7.511,7.511,0,0,1-.95,2.8A5.971,5.971,0,0,1,25.336,30.1a7.381,7.381,0,0,1-2.425,1.05,11.9,11.9,0,0,1-2.8.325,10.47,10.47,0,0,1-4.3-.825,8.447,8.447,0,0,1-3.1-2.325,10.038,10.038,0,0,1-1.875-3.55,15.175,15.175,0,0,1-.625-4.45,14.957,14.957,0,0,1,.725-4.8,11.281,11.281,0,0,1,2-3.675A8.672,8.672,0,0,1,16.011,9.5a9.487,9.487,0,0,1,4-.825,8.473,8.473,0,0,1,4.725,1.35,9.468,9.468,0,0,1,3.375,4.45l9.3-3.85a17.66,17.66,0,0,0-7.05-7.9A20.454,20.454,0,0,0,20.011.172a22.444,22.444,0,0,0-8.25,1.45,18.415,18.415,0,0,0-6.325,4.05,17.723,17.723,0,0,0-4.05,6.275A22.158,22.158,0,0,0-.039,20.022a21.945,21.945,0,0,0,1.45,8.125,18.448,18.448,0,0,0,4.05,6.3,18.1,18.1,0,0,0,6.225,4.075,21.43,21.43,0,0,0,8.025,1.45,22.864,22.864,0,0,0,6.1-.8,19.839,19.839,0,0,0,5.325-2.325,16.661,16.661,0,0,0,4.225-3.8,18.148,18.148,0,0,0,2.85-5.225,19.335,19.335,0,0,0,1-4.55,54.1,54.1,0,0,0,.25-5.45H20.011v7.6Zm25.65-24.2v37.7h9.8V1.222h-9.8Zm27.5,8.3h2.25a12.039,12.039,0,0,1,4.5.8,9.416,9.416,0,0,1,5.5,5.55,11.6,11.6,0,0,1,.75,4.2,11.907,11.907,0,0,1-.725,4.225,9.42,9.42,0,0,1-2.1,3.325,9.715,9.715,0,0,1-3.375,2.2,12.167,12.167,0,0,1-4.55.8H73.16V9.522Zm-9.8,29.4h14.5a17.216,17.216,0,0,0,7.275-1.55,19.46,19.46,0,0,0,5.9-4.15,19.081,19.081,0,0,0,3.95-6.025,18.5,18.5,0,0,0-.025-14.3,19.165,19.165,0,0,0-3.975-6,19.7,19.7,0,0,0-5.9-4.125,17.113,17.113,0,0,0-7.225-1.55H63.36v37.7Zm60.75-37.7H102.66v37.7h21.45v-8.3H112.46v-6.5h11v-8.3h-11v-6.3h11.65v-8.3Zm16.449,14.7a10.379,10.379,0,0,1,5.675-5.475,10.905,10.905,0,0,1,11.55,2.175,10.314,10.314,0,0,1,2.325,3.3,10.042,10.042,0,0,1,.85,4.15,10.04,10.04,0,0,1-.85,4.15,10.3,10.3,0,0,1-2.325,3.3,10.679,10.679,0,0,1-3.4,2.175,11.1,11.1,0,0,1-8.15,0,10.379,10.379,0,0,1-5.675-5.475,10.04,10.04,0,0,1-.85-4.15A10.042,10.042,0,0,1,140.559,15.922ZM131.009,27.9a19.336,19.336,0,0,0,10.875,10.55,23.966,23.966,0,0,0,16.825,0,19.862,19.862,0,0,0,6.625-4.225,19.326,19.326,0,0,0,4.325-6.325,19.7,19.7,0,0,0,1.55-7.825,19.7,19.7,0,0,0-1.55-7.825,19.334,19.334,0,0,0-4.325-6.325A19.874,19.874,0,0,0,158.709,1.7a23.966,23.966,0,0,0-16.825,0,19.5,19.5,0,0,0-12.425,18.375A19.7,19.7,0,0,0,131.009,27.9Zm56.2,11.025V15.872l18.1,23.05h9.75V1.222h-9.75v23.05l-18.1-23.05h-9.8v37.7h9.8Zm77.349-35.7a25.838,25.838,0,0,0-5.85-2.275,23.754,23.754,0,0,0-5.85-.775,15.5,15.5,0,0,0-5.425.9,11.6,11.6,0,0,0-4.1,2.525,11.283,11.283,0,0,0-2.6,3.9,13.358,13.358,0,0,0-.925,5.075,10.7,10.7,0,0,0,.875,4.625,8.936,8.936,0,0,0,2.3,3.025,11.7,11.7,0,0,0,3.25,1.925q1.825,0.725,3.725,1.325,1.6,0.551,2.725,1a8.022,8.022,0,0,1,1.825.975,3.194,3.194,0,0,1,1,1.15,3.408,3.408,0,0,1-.875,3.975,5.071,5.071,0,0,1-3.575,1.1,10.45,10.45,0,0,1-4.25-.95,17.035,17.035,0,0,1-4.35-2.9l-4.2,7.9a22.708,22.708,0,0,0,13.25,4.25,19.166,19.166,0,0,0,6.175-.925,13.135,13.135,0,0,0,4.6-2.6,10.948,10.948,0,0,0,2.85-4.025,13.577,13.577,0,0,0,.975-5.25,10.55,10.55,0,0,0-2.225-6.975,15.127,15.127,0,0,0-7.025-4.275q-1.2-.4-2.425-0.75a13.371,13.371,0,0,1-2.2-.825,5.22,5.22,0,0,1-1.575-1.125,2.336,2.336,0,0,1-.6-1.65,2.8,2.8,0,0,1,1.2-2.35,5.029,5.029,0,0,1,3.1-.9,8.5,8.5,0,0,1,3.1.625,12.123,12.123,0,0,1,3.2,1.925Zm7.7-2v37.7h21.55v-8.3h-11.75V1.222h-9.8Zm26.6,0v37.7h9.8V1.222h-9.8Zm39.3,0h-21.6v37.7h9.8v-14.8h10.75v-8.3h-10.75v-6.3h11.8v-8.3Zm27.3,0h-21.45v37.7h21.45v-8.3h-11.65v-6.5h11v-8.3h-11v-6.3h11.65v-8.3Z"/>
</svg>
